<?xml version="1.0" encoding="UTF-8"?>
<svg id="Layer_1" data-name="Layer 1" xmlns="http://www.w3.org/2000/svg" version="1.1" xmlns:xlink="http://www.w3.org/1999/xlink" viewBox="0 0 599 600">
  <defs>
    <style>
      .cls-1 {
        fill: #fff7ff;
      }

      .cls-1, .cls-2, .cls-3, .cls-4, .cls-5, .cls-6, .cls-7, .cls-8, .cls-9, .cls-10, .cls-11, .cls-12, .cls-13, .cls-14, .cls-15, .cls-16, .cls-17, .cls-18, .cls-19, .cls-20 {
        stroke-width: 0px;
      }

      .cls-2, .cls-21 {
        fill: #000;
      }

      .cls-3 {
        fill: #ceced7;
      }

      .cls-4 {
        fill: #eef8ea;
      }

      .cls-5 {
        fill: #f7f7f7;
      }

      .cls-6, .cls-22 {
        fill: none;
      }

      .cls-7 {
        fill: #f7fff3;
      }

      .cls-8 {
        fill: #cecece;
      }

      .cls-9 {
        fill: #b9b9b6;
      }

      .cls-10, .cls-23 {
        fill: #e7e7e7;
      }

      .cls-11 {
        fill: #9b9c9c;
      }

      .cls-12 {
        opacity: .6;
      }

      .cls-12, .cls-24, .cls-19 {
        fill: #fff;
      }

      .cls-21, .cls-24, .cls-23, .cls-22 {
        stroke: #212121;
        stroke-miterlimit: 10;
      }

      .cls-13 {
        fill: #dedede;
      }

      .cls-25 {
        clip-path: url(#clippath);
      }

      .cls-14 {
        fill: #efefef;
      }

      .cls-15 {
        fill: #f7ffff;
      }

      .cls-16 {
        fill: #b6f4ff;
      }

      .cls-17 {
        fill: #aff;
      }

      .cls-18 {
        fill: #b1d6b3;
      }

      .cls-20 {
        fill: #d6d6d5;
      }
    </style>
    <clipPath id="clippath">
      <rect class="cls-6" x="-.94" y="-.28" width="599.57" height="602.72"/>
    </clipPath>
  </defs>
  <g class="cls-25">
    <rect class="cls-18" x=".6" y="-2.59" width="599.57" height="602.72"/>
    <rect class="cls-18" x=".6" y="-2.59" width="599.57" height="602.72"/>
    <path class="cls-12" d="M610.31,71.3c-1.7-6.21-8.97-11.02-15.37-8.77-35.06,12.33-70.8,22.64-107.05,30.8-17.97,4.04-36.05,7.56-54.22,10.54-12.2,2-24.47,3.46-36.71,5.09-3.05-2.5-7.26-3.48-11.35-2.55-10,2.28-20.07-.02-29.74-2.8-10.6-3.05-20.98-6.75-31.69-9.42-22.18-5.51-45.23-8.33-68.08-8.16-20.42.14-42.57,5.78-48.87,28.07-5.52,19.52,3.68,40.78,11.96,58.09,9.81,20.52,23.41,39.3,39.46,55.33.92.92,1.88,1.63,2.86,2.19-3.65,4.56-6.13,10.1-6.93,16.77-1.05,8.76,1.47,17.31,3.39,25.77,1.5,6.64,1.63,11.76-.69,17.53-4.92,12.26-17.29,20.44-29.97,25.2-16.69,6.27-34.44,10.02-51.64,14.6-18.41,4.89-36.83,9.74-55.22,14.68-14.43,3.88-30.09,8.95-40.5,20.33-11.7,12.79-14.52,30.89-8.9,47.16,5.69,16.5,17.46,28.77,30.82,39.42,12.34,9.85,24.59,19.4,35.33,31.07,10,10.86,18.49,22.62,25.89,35.48,14.7,25.56,24.19,54.97,26.49,83.98.6,7.61.76,15.23.53,22.85-.48,16.17,24.51,16.16,24.99,0,1.84-61.94-23.27-124.11-67.33-167.43-11.26-11.07-24.32-19.81-36.07-30.28-10.31-9.19-19.95-21.29-18.41-34.98.53-4.72,3.2-8.85,7.26-12.34-.13.14,2-1.44,2.59-1.82,1.4-.89,2.85-1.71,4.32-2.47,2.62-1.35,5.02-2.29,8.46-3.45,16.37-5.52,33.46-9.23,50.15-13.67,17.99-4.78,36.07-9.3,53.98-14.42,16.21-4.63,32.37-10.91,44.95-22.55,11.52-10.66,19.87-26.38,19.08-42.44-.41-8.37-3.44-16.47-4.59-24.46-.35-2.41-.39-5.2.31-7.22.02.11.79-1.41,1.1-1.97,0,0,.01-.01.02-.02.49-.46.98-.95,1.44-1.43,0,0,0-.01.02-.02.39-.25.76-.51,1.16-.75,1.02-.62,2.08-1.15,3.15-1.67.56-.21,1.12-.43,1.68-.62,1.43-.5,2.87-.95,4.33-1.37,5.45-1.58,11.01-2.75,16.42-4.45,13.81-4.35,25.38-12.15,30.51-26.32,4.96-13.7.98-29.14,2.83-42.45,1.58-11.32,10.76-20,22.15-24.73,16.21-6.74,35-7.2,52.17-9.58,17.92-2.48,35.78-5.48,53.53-8.98,35.82-7.07,71.23-16.22,106-27.39,8.47-2.72,16.89-5.57,25.28-8.52,6.37-2.24,10.6-8.59,8.73-15.45ZM306.47,209.16c.4-.18.64-.3.79-.37-.26.12-.53.24-.79.37ZM333.78,131.75c-12.63,11.88-16.89,27.55-16.63,44.48.05,3.52.22,7.04.26,10.55.03,2.87-.11,7.77-.3,8.94-.52,3.23-1.33,5.53-2.45,7.35-.39.63-.47.85-1.6,1.98-.39.39-.81.74-1.21,1.12-.06.05-.1.1-.14.14-.11.06-.23.12-.38.21-1.13.63-2.22,1.3-3.36,1.92-.22.12-.45.23-.68.34-.24.11-.78.35-.99.42-2.76.95-5.52,1.85-8.34,2.62-5.42,1.48-10.93,2.65-16.24,4.51-.6.21-1.18.44-1.77.67-.26-2.48-1.37-4.98-3.63-7.24-12.49-12.47-22.99-26.49-31.39-42.06-3.98-7.38-7.47-15-10.29-22.9-2.72-7.62-4.97-14.68-3.8-22.46-.16,1.07.71-2.37.91-2.9.12-.33.84-1.75,1.47-2.53,1.71-2.14,3.67-3.07,6.61-3.96,7.31-2.23,15.47-1.91,23.85-1.72,20.1.46,39.96,3.36,59.36,8.64,6.25,1.7,12.45,3.69,18.65,5.56-2.77,1.89-5.42,3.99-7.92,6.33Z"/>
    <g>
      <g>
        <path class="cls-2" d="M132.55,273.72l-1.78,45.87h-5.92l1.27,3.83-42.59,9.74.02-.45-36.17-41.64,2.42-48.89-.51-.55,43.7-6.12,39.56,38.22ZM129.81,318.58l1.71-44.08-45.45,6.25-1.5,51.13,40.25-9.21-1.36-4.1h6.35ZM85.79,279.78l45.17-6.21-38.3-37-41.33,5.78,34.46,37.44ZM85.09,280.5l-34.33-37.3-2.35,47.5,35.19,40.52,1.49-50.72Z"/>
        <polygon class="cls-19" points="131.52 274.5 129.81 318.58 123.47 318.58 124.83 322.68 84.58 331.88 86.08 280.75 131.52 274.5"/>
        <polygon class="cls-10" points="130.95 273.57 85.79 279.78 51.33 242.34 92.65 236.56 130.95 273.57"/>
        <polygon class="cls-20" points="50.76 243.2 85.09 280.5 83.6 331.22 48.41 290.7 50.76 243.2"/>
      </g>
      <g>
        <polygon class="cls-22" points="132.55 273.72 92.99 235.5 49.3 241.62 49.81 242.17 47.39 291.06 83.56 332.7 83.54 333.15 126.12 323.41 124.86 319.58 130.77 319.58 132.55 273.72"/>
        <polygon class="cls-22" points="92.65 236.56 130.95 273.57 85.79 279.78 51.33 242.34 92.65 236.56"/>
        <polygon class="cls-22" points="48.41 290.7 50.76 243.2 85.09 280.5 83.6 331.22 48.41 290.7"/>
        <polygon class="cls-22" points="123.47 318.58 124.83 322.68 84.58 331.88 86.08 280.75 131.52 274.5 129.81 318.58 123.47 318.58"/>
      </g>
    </g>
    <g>
      <g>
        <path class="cls-2" d="M190.12,146.91l1.02,33.5-17.54,2.5-29.07,4.97.02-.42-28.58-33.88,1.19-16.64,37.28-5.58.14.99-35.83,5.36,8.02,7.22,27.78-4.06.12-8.51.1-6.84-.56-.6,16.73-1.53,19.61,23.46-.43.07ZM190.11,179.54l-.99-32.46-12.45,2.15-2.6,32.59,16.04-2.28ZM188.66,146.14l-18.15-21.71-14.17,1.3,1.14,1.24,3.64,5.37,7.78-1.54,6.97,10.08-4.18,1.27,4.73,6.11,12.25-2.11ZM175.69,148.95l-4.52-5.83-2.73,19.95,3.81,2.87-.71.09,1.83,12.03,2.32-29.11ZM174.25,140.31l-5.8-8.4-7.09,1.4-1.11,23.59,7.28,5.49,2.79-20.36-.32-.41,4.25-1.3ZM172.95,182l-2.4-15.83-23.99,3.1-.96,17.43,27.35-4.69ZM146.27,168.29l23.41-3.02-10.46-7.88v-.07s-3.86-4.38-3.86-4.38v.31l-4.8-7.24-22.71,3.03,18.41,19.25ZM160.39,133.03l-3.72-5.48-.91-.97-.36,24.85,3.9,4.44,1.09-22.84ZM154.42,150l.12-8.11-27.4,4.01.14,2.2,23.77-3.18,3.37,5.08ZM145.57,169l-18.33-19.16-.98,14.39,18.37,21.78.94-17ZM126.3,148.86l-.53-.55.52-.07-.17-2.53-8.07-7.27-1.06,14.81,8.34,9.88.97-14.27Z"/>
        <polygon class="cls-20" points="189.12 147.08 190.11 179.54 174.07 181.83 176.67 149.23 189.12 147.08"/>
        <polygon class="cls-5" points="170.5 124.43 188.66 146.14 176.41 148.25 171.68 142.14 175.86 140.87 168.89 130.79 161.12 132.33 157.48 126.96 156.34 125.73 170.5 124.43"/>
        <polygon class="cls-19" points="171.17 143.12 175.69 148.95 173.37 178.07 171.54 166.04 172.25 165.95 168.44 163.07 171.17 143.12"/>
        <polygon class="cls-20" points="168.45 131.91 174.25 140.31 170 141.61 170.32 142.02 167.53 162.38 160.26 156.89 161.37 133.31 168.45 131.91"/>
        <polygon class="cls-19" points="170.55 166.17 172.95 182 145.6 186.69 146.56 169.26 170.55 166.17"/>
        <polygon class="cls-19" points="169.68 165.26 146.27 168.29 127.86 149.04 150.57 146.01 155.37 153.24 155.37 152.93 159.24 157.31 159.23 157.38 169.68 165.26"/>
        <polygon class="cls-19" points="156.67 127.56 160.39 133.03 159.3 155.88 155.4 151.44 155.76 126.58 156.67 127.56"/>
        <polygon class="cls-19" points="154.67 132.36 154.55 140.87 126.77 144.93 118.75 137.72 154.58 132.36 154.67 132.36"/>
        <polygon class="cls-19" points="154.54 141.89 154.42 150 151.05 144.92 127.28 148.1 127.14 145.9 154.54 141.89"/>
        <polygon class="cls-10" points="127.24 149.84 145.57 169 144.63 186.01 126.26 164.23 127.24 149.84"/>
        <polygon class="cls-5" points="125.77 148.31 126.3 148.86 125.33 163.13 116.99 153.25 118.05 138.44 126.12 145.71 126.29 148.24 125.77 148.31"/>
      </g>
      <g>
        <polygon class="cls-22" points="154.58 132.36 154.44 131.37 117.16 136.94 115.97 153.59 144.55 187.46 144.53 187.89 173.6 182.91 191.14 180.41 190.12 146.91 190.55 146.84 170.93 123.39 154.21 124.91 154.77 125.52 154.67 132.36 154.55 140.87 126.77 144.93 118.75 137.72 154.58 132.36"/>
        <polygon class="cls-22" points="145.6 186.69 146.56 169.26 170.55 166.17 172.95 182 145.6 186.69"/>
        <polygon class="cls-22" points="155.37 153.24 155.37 152.93 159.24 157.31 159.23 157.38 169.68 165.26 146.27 168.29 127.86 149.04 150.57 146.01 155.37 153.24"/>
        <polygon class="cls-22" points="161.37 133.31 168.45 131.91 174.25 140.31 170 141.61 170.32 142.02 167.53 162.38 160.26 156.89 161.37 133.31"/>
        <polygon class="cls-22" points="168.44 163.07 171.17 143.12 175.69 148.95 173.37 178.07 171.54 166.04 172.25 165.95 168.44 163.07"/>
        <polygon class="cls-22" points="190.11 179.54 174.07 181.83 176.67 149.23 189.12 147.08 190.11 179.54"/>
        <polygon class="cls-22" points="170.5 124.43 188.66 146.14 176.41 148.25 171.68 142.14 175.86 140.87 168.89 130.79 161.12 132.33 157.48 126.96 156.34 125.73 170.5 124.43"/>
        <polygon class="cls-22" points="156.67 127.56 160.39 133.03 159.3 155.88 155.4 151.44 155.76 126.58 156.67 127.56"/>
        <polygon class="cls-22" points="154.42 150 151.05 144.92 127.28 148.1 127.14 145.9 154.54 141.89 154.42 150"/>
        <polygon class="cls-22" points="118.05 138.44 126.12 145.71 126.29 148.24 125.77 148.31 126.3 148.86 125.33 163.13 116.99 153.25 118.05 138.44"/>
        <polygon class="cls-22" points="126.26 164.23 127.24 149.84 145.57 169 144.63 186.01 126.26 164.23"/>
      </g>
    </g>
    <g>
      <g>
        <path class="cls-2" d="M353.06,290.25l2.72,25.67-45.63,7.04-.12,1.45-7.73-8.87-7.33,1.56-.02.86-24.63-27.25,1.77-34.27.63.69,28.6-4.96,21.31,26.56-.41.07.14,4.19,16.65-2.57,13.61,8.89.33-.05.03.28.89.58-.81.13ZM354.69,315.06l-2.62-24.65-39.76,6.35-2.08,25.16,44.46-6.86ZM324.32,293.82l26.83-4.29-12.37-8.07-32.26,4.98,5.57,9.34,12.23-1.96ZM321.37,283.13l-.14-4.17-25.57,4.45-.66,32.65,7.03-1.51,3.18-28.38-.3-.49,16.47-2.55ZM320.79,278.01l-19.87-24.76-27.4,4.75,21.84,24.44,25.43-4.43ZM311.34,296.45l-5.29-8.85-3.04,27.21,6.23,7.16,2.1-25.52ZM294.67,283.17l-21.69-24.26-1.63,31.42,22.66,25.08.66-32.24Z"/>
        <polygon class="cls-10" points="352.07 290.41 354.69 315.06 310.24 321.92 312.32 296.76 352.07 290.41"/>
        <polygon class="cls-14" points="351.15 289.53 324.32 293.82 312.1 295.78 306.53 286.45 338.79 281.46 351.15 289.53"/>
        <polygon class="cls-14" points="321.23 278.96 321.37 283.13 304.91 285.68 305.21 286.17 302.03 314.56 295 316.06 295.66 283.41 321.23 278.96"/>
        <polygon class="cls-19" points="300.92 253.25 320.79 278.01 295.36 282.45 273.52 258.01 300.92 253.25"/>
        <polygon class="cls-19" points="306.05 287.59 311.34 296.45 309.24 321.96 303.01 314.81 306.05 287.59"/>
        <polygon class="cls-13" points="272.98 258.91 294.67 283.17 294.01 315.41 271.35 290.33 272.98 258.91"/>
      </g>
      <g>
        <polygon class="cls-22" points="353.06 290.25 353.87 290.11 352.98 289.53 352.95 289.25 352.62 289.3 339.02 280.41 322.37 282.98 322.23 278.79 322.64 278.72 301.33 252.16 272.73 257.12 272.1 256.43 270.33 290.7 294.96 317.95 294.98 317.09 302.31 315.53 310.04 324.4 310.16 322.96 355.78 315.91 353.06 290.25"/>
        <polygon class="cls-22" points="351.15 289.53 324.32 293.82 312.1 295.78 306.53 286.45 338.79 281.46 351.15 289.53"/>
        <polygon class="cls-22" points="300.92 253.25 320.79 278.01 295.36 282.45 273.52 258.01 300.92 253.25"/>
        <polygon class="cls-22" points="271.35 290.33 272.98 258.91 294.67 283.17 294.01 315.41 271.35 290.33"/>
        <polygon class="cls-22" points="295.66 283.41 321.23 278.96 321.37 283.13 304.91 285.68 305.21 286.17 302.03 314.56 295 316.06 295.66 283.41"/>
        <polygon class="cls-22" points="309.24 321.96 303.01 314.81 306.05 287.59 311.34 296.45 309.24 321.96"/>
        <polygon class="cls-22" points="312.32 296.76 352.07 290.41 354.69 315.06 310.24 321.92 312.32 296.76"/>
      </g>
    </g>
    <g>
      <g>
        <path class="cls-2" d="M527.98,334.69c6.44,7.31,3.63,24.77,3.51,25.52l-.06.36-75.66,11.08.02-.4-27.73-31.64.35-25.76,17.19-2.85,12.06,13.39-.15-5.48-11.57-14.45.14,6.39h-.48s-.52.02-.52.02l-.2-9.35.74.92,37.48-5.65,2.58,4.31,17.8-.86.16.19,16.46,19.02-.47.05.81,11.84-.99.07-.82-11.8-18.72,1.98-1.16,13.46c8.61-1.79,16.19-3.14,20.71-3.45.28-.02.55-.04.8-.05,3.19-.13,5.79.91,7.73,3.13ZM530.56,359.69c.18-1.22.71-5.36.61-10.04l-74.52,11.28c.29,4.17.22,8.08.17,9.57l73.74-10.8ZM456.58,359.92l74.55-11.29c-.2-4.87-1.14-10.15-3.9-13.28-1.73-1.97-4.08-2.9-6.93-2.78-12.5.55-53.93,10.87-68.85,14.67.5.26,1.02.59,1.57,1.03,2.18,1.68,3.14,6.72,3.56,11.65ZM518.08,318.67l-15.05-17.39-16.53.79,13.19,18.2.32.03-.03.28,18.09-1.92ZM498.96,320.97l-8.16-11.26,3.08,5.15-.37.05-1.79,21.66c2.03-.44,4.04-.87,6-1.29l1.24-14.31ZM490.7,336.79l1.8-21.77-33.99,4.15.16,5.87h-.42s6.02,6.7,6.02,6.7l-.51.08-.48,11.42c8.1-2,17.98-4.37,27.42-6.45ZM492.23,314.05l-9.65-16.16-36.24,5.47,11.87,14.84,34.02-4.15ZM462.26,343.5l.49-11.52-16.38,2.41-1.35,14.06.51-.61s1.53-1.82,4.27-1.21c2.93-.75,7.3-1.86,12.46-3.14ZM462.27,331.03l-17.06-18.93-15.83,2.62-.33,24.53,14.09,16.07,12.7,14.48c.15-5.93-.21-18.25-3.42-20.73-.99-.76-1.86-1.19-2.61-1.4-2.32.59-3.68.94-3.77.97l-1.07.27-.6,6.3-1-.1,2.08-21.6,16.82-2.49Z"/>
        <path class="cls-14" d="M531.17,349.65c.1,4.68-.43,8.82-.61,10.04l-73.74,10.8c.05-1.49.12-5.4-.17-9.57l74.52-11.28Z"/>
        <path class="cls-19" d="M531.13,348.63l-74.55,11.29c-.42-4.92-1.38-9.97-3.56-11.65-.55-.43-1.07-.76-1.57-1.03,14.92-3.8,56.35-14.12,68.85-14.67,2.85-.12,5.2.81,6.93,2.78,2.76,3.13,3.7,8.4,3.9,13.28Z"/>
        <path class="cls-13" d="M519.44,331.43v.19c-4.52.31-12.1,1.66-20.7,3.45l1.16-13.46,18.72-1.98.82,11.8Z"/>
        <polygon class="cls-19" points="503.04 301.29 518.08 318.67 499.99 320.59 500.02 320.31 499.7 320.28 486.51 302.08 503.04 301.29"/>
        <path class="cls-3" d="M490.8,309.71l8.16,11.26-1.24,14.31c-1.96.41-3.97.84-6,1.29l1.79-21.66.37-.05-3.08-5.15Z"/>
        <path class="cls-13" d="M492.5,315.03l-1.8,21.77c-9.44,2.08-19.32,4.45-27.42,6.45l.48-11.42.51-.08-6.02-6.69h.42s-.16-5.88-.16-5.88l33.99-4.15Z"/>
        <polygon class="cls-19" points="482.58 297.89 492.23 314.05 458.21 318.2 446.34 303.36 482.58 297.89"/>
        <polygon class="cls-4" points="445.21 312.09 462.27 331.03 445.45 333.52 443.37 355.11 443.14 355.32 429.06 339.25 429.39 314.71 445.21 312.09"/>
        <polygon class="cls-20" points="457.5 318.92 457.65 324.39 445.59 311.01 445.59 310.87 446.07 310.86 445.93 304.46 457.5 318.92"/>
        <path class="cls-4" d="M452.42,349.06c3.21,2.48,3.57,14.8,3.42,20.73l-12.7-14.48.23-.2,1,.1.6-6.3,1.07-.27c.09-.03,1.45-.38,3.77-.97.75.21,1.62.63,2.61,1.4Z"/>
      </g>
      <g>
        <path class="cls-22" d="M445.59,311.01l-17.19,2.85-.35,25.76,27.73,31.64-.02.4,75.66-11.08.06-.36c.12-.74,2.93-18.21-3.51-25.52-1.94-2.21-4.54-3.26-7.73-3.13-.25.01-.52.03-.8.05-4.53.31-12.11,1.66-20.71,3.45l1.16-13.46,18.72-1.98.82,11.8.99-.07-.81-11.84.47-.05-16.46-19.02-.16-.19-17.8.86-2.58-4.31-37.48,5.65-.74-.92.2,9.35h.52s.48-.02.48-.02l-.14-6.39,11.57,14.45.15,5.48-12.06-13.39Z"/>
        <path class="cls-22" d="M520.3,332.57c2.85-.12,5.2.81,6.93,2.78,2.76,3.13,3.7,8.4,3.9,13.28l-74.55,11.29c-.42-4.92-1.38-9.97-3.56-11.65-.55-.43-1.07-.76-1.57-1.03,14.92-3.8,56.35-14.12,68.85-14.67Z"/>
        <path class="cls-22" d="M449.8,346.63c-2.74-.61-4.25,1.18-4.27,1.21l-.51.61,1.35-14.06,16.38-2.41-.49,11.52c-5.16,1.28-9.53,2.38-12.46,3.14Z"/>
        <polygon class="cls-22" points="503.04 301.29 518.08 318.67 499.99 320.59 500.02 320.31 499.7 320.28 486.51 302.08 503.04 301.29"/>
        <path class="cls-22" d="M498.96,320.97l-1.24,14.31c-1.96.41-3.97.84-6,1.29l1.79-21.66.37-.05-3.08-5.15,8.16,11.26Z"/>
        <polygon class="cls-22" points="482.58 297.89 492.23 314.05 458.21 318.2 446.34 303.36 482.58 297.89"/>
        <path class="cls-22" d="M458.51,319.18l33.99-4.15-1.8,21.77c-9.44,2.08-19.32,4.45-27.42,6.45l.48-11.42.51-.08-6.02-6.69h.42s-.16-5.88-.16-5.88Z"/>
        <path class="cls-22" d="M443.14,355.32l-14.09-16.07.33-24.53,15.83-2.62,17.06,18.93-16.82,2.49-2.08,21.6,1,.1.6-6.3,1.07-.27c.09-.03,1.45-.38,3.77-.97.75.21,1.62.63,2.61,1.4,3.21,2.48,3.57,14.8,3.42,20.73l-12.7-14.48Z"/>
        <path class="cls-22" d="M530.56,359.69l-73.74,10.8c.05-1.49.12-5.4-.17-9.57l74.52-11.28c.1,4.68-.43,8.82-.61,10.04Z"/>
      </g>
    </g>
    <g>
      <g>
        <path class="cls-2" d="M442.4,59.92l-.66,33.42-27.02,3.37-.07,5.31c.35.76.42,1.47.17,2.11-.74,1.89-3.96,2.72-7.69,3.69-.67.17-1.35.35-2.04.54-.79.21-1.57.31-2.34.31-4.01,0-7.68-2.64-10.72-4.84-.61-.44-1.21-.86-1.78-1.27l-.42-.02.68-12.64c-.17-.99.2-2.18,1.1-3.52,2.02-2.97,8.59-3.12,10.54-3.09.86.02,1.74.07,2.62.15l-14.69-17.03v-.19l-.39-31.63,25.15-2.95v-.79s27.25,29.09,27.25,29.09h.3ZM440.76,92.45l.62-31.5-29.33.86,1.88,25.78h-.1c.17.43.26.85.28,1.28h.72s-.09,6.81-.09,6.81l26.02-3.24ZM440.76,59.97l-24.93-26.64-.11,9.07,16.46,17.69-.14.13,8.73-.25ZM430.95,60.26l-15.93-17.11-20.06,2.65,16.12,16.43-.1-1.38,19.97-.59ZM414.72,42.17l.12-9.52-23.95,2.81,3.35,9.42,20.48-2.71ZM413.89,103.75c.19-.49.06-1.08-.39-1.8l.16-.1.14-11.27c-.94,2.26-3.97,4.24-8.36,5.45-1.23.34-2.32.48-3.31.48-3.15,0-5.32-1.51-7.89-3.3-.45-.32-.91-.64-1.4-.96-.24-.07-.87-.28-1.42-.75l-.55,10.27c.57.38,1.14.8,1.75,1.24,3.63,2.62,7.75,5.6,12.21,4.37.69-.19,1.37-.36,2.05-.54,3.32-.85,6.45-1.67,7.01-3.09ZM412.92,90.11c.36-.92.23-1.88-.38-2.84-.75-1.2-3.26-2.17-6.47-2.65l-.17.14-.16-.19c-1.13-.15-2.35-.25-3.6-.27h-.47c-4.54,0-8.13,1.03-9.23,2.64-.87,1.28-1.16,2.36-.86,3.13.37.94,1.56,1.23,1.58,1.24l.17.07c.51.34,1,.68,1.48,1.02,3.3,2.3,5.68,3.96,10.36,2.68,4.1-1.13,6.99-2.97,7.75-4.95ZM412.81,86.06l-1.64-22.58-.14.13-18.18-18.55.38-.05-2.49-6.97.35,27.99,15.17,17.61c2.75.41,5.26,1.22,6.56,2.43Z"/>
        <path class="cls-19" d="M441.38,60.96l-.62,31.5-26.02,3.24.09-6.8h-.72c-.02-.43-.11-.85-.28-1.28h.1s-1.88-25.79-1.88-25.79l29.33-.86Z"/>
        <polygon class="cls-11" points="415.83 33.33 440.76 59.97 432.03 60.23 432.17 60.09 415.72 42.41 415.83 33.33"/>
        <polygon class="cls-19" points="415.03 43.14 430.95 60.26 410.98 60.85 411.08 62.23 394.96 45.79 415.03 43.14"/>
        <polygon class="cls-13" points="414.84 32.65 414.72 42.17 394.23 44.88 390.89 35.46 414.84 32.65"/>
        <path class="cls-16" d="M413.5,101.95c.45.72.58,1.31.39,1.8-.56,1.42-3.69,2.23-7.01,3.09-.68.18-1.36.35-2.05.54-4.46,1.23-8.58-1.75-12.21-4.37-.61-.43-1.18-.85-1.75-1.24l.55-10.27c.55.47,1.18.68,1.42.75.49.32.95.64,1.4.96,2.57,1.79,4.74,3.3,7.89,3.3.99,0,2.08-.14,3.31-.48,4.39-1.21,7.42-3.19,8.36-5.45l-.14,11.27-.16.1Z"/>
        <path class="cls-10" d="M412.54,87.27c.61.96.74,1.92.38,2.84-.76,1.98-3.65,3.83-7.75,4.95-4.68,1.28-7.06-.38-10.36-2.68-.48-.33-.97-.67-1.48-1.02l-.17-.07s-1.21-.29-1.58-1.24c-.3-.76,0-1.85.86-3.13,1.1-1.62,4.69-2.64,9.23-2.64h.47c1.25.02,2.47.12,3.6.27l.16.19.17-.14c3.21.48,5.72,1.46,6.47,2.65Z"/>
        <path class="cls-10" d="M411.17,63.48l1.64,22.58c-1.3-1.22-3.81-2.02-6.56-2.43l-15.17-17.61-.35-27.99,2.49,6.97-.38.05,18.18,18.55.14-.13Z"/>
        <path class="cls-2" d="M387.94,70.19c.35.76.42,1.47.17,2.11-.75,1.89-3.97,2.72-7.7,3.69-.67.18-1.35.35-2.03.54-.79.21-1.58.31-2.35.31-4.01,0-7.67-2.64-10.71-4.84-.62-.44-1.22-.87-1.79-1.27l.58.03.04-.82c.57.39,1.15.81,1.75,1.25,3.63,2.62,7.75,5.6,12.22,4.37.68-.18,1.37-.36,2.04-.54,3.32-.85,6.46-1.67,7.01-3.09.2-.49.07-1.08-.38-1.8l.15-.1.15-11.27c-.94,2.26-3.97,4.24-8.37,5.45-1.23.34-2.32.49-3.31.49-3.15,0-5.31-1.52-7.88-3.31-.45-.32-.92-.64-1.4-.96-.24-.07-.87-.28-1.42-.75l.08-1.57-1-.06c-.16-.99.21-2.17,1.11-3.5,2.01-2.97,8.58-3.11,10.54-3.08,4.55.06,9.79,1.16,11.23,3.43.45.71.69,1.43.73,2.15h.71s-.17,13.13-.17,13.13ZM386.21,58.3c.36-.92.23-1.88-.38-2.84-1.04-1.65-5.42-2.89-10.41-2.96-.15-.01-.31-.01-.46-.01-4.54,0-8.14,1.03-9.23,2.64-.87,1.29-1.17,2.36-.86,3.14.37.93,1.56,1.22,1.57,1.23l.17.07c.52.34,1.01.68,1.49,1.03,3.29,2.29,5.68,3.95,10.36,2.67,4.09-1.13,6.99-2.97,7.75-4.95Z"/>
        <path class="cls-16" d="M386.79,70.13c.45.72.58,1.31.38,1.8-.55,1.42-3.69,2.23-7.01,3.09-.67.18-1.36.36-2.04.54-4.47,1.23-8.59-1.75-12.22-4.37-.6-.43-1.18-.85-1.75-1.25l.56-10.26c.55.47,1.18.68,1.42.75.48.32.95.64,1.4.96,2.57,1.79,4.73,3.31,7.88,3.31.99,0,2.08-.15,3.31-.49,4.4-1.21,7.43-3.19,8.37-5.45l-.15,11.27-.15.1Z"/>
        <path class="cls-10" d="M385.83,55.45c.61.96.74,1.92.38,2.84-.76,1.98-3.66,3.83-7.75,4.95-4.68,1.28-7.07-.38-10.36-2.67-.48-.34-.97-.68-1.49-1.03l-.17-.07s-1.2-.29-1.57-1.23c-.31-.77,0-1.85.86-3.14,1.09-1.62,4.69-2.64,9.23-2.64.15,0,.31,0,.46.01,4.99.07,9.37,1.32,10.41,2.96Z"/>
        <path class="cls-2" d="M364.79,58.11l-.08,1.57c-.31-.25-.59-.6-.77-1.06-.07-.18-.12-.37-.15-.56,0-.01,0-.01,0-.01l1,.06Z"/>
        <path class="cls-2" d="M364.71,59.68l-.56,10.26c-.12-.08-.23-.16-.35-.24l-.55.84c.09.06.19.12.28.19l-.42-.02.68-12.65c.03.19.08.38.15.56.18.45.46.8.77,1.06Z"/>
        <path class="cls-2" d="M364.15,69.94l-.04.82-.58-.03c-.09-.07-.19-.13-.28-.19l.55-.84c.12.08.23.16.35.24Z"/>
      </g>
      <g>
        <polyline class="cls-22" points="363.79 58.05 364.79 58.11 364.71 59.68 364.15 69.94 364.11 70.77 363.53 70.74 363.11 70.72 363.79 58.06"/>
        <path class="cls-22" d="M363.53,70.74c.57.39,1.17.82,1.79,1.27,3.04,2.2,6.7,4.84,10.71,4.84.77,0,1.56-.1,2.35-.31.68-.19,1.36-.36,2.03-.54,3.73-.96,6.95-1.8,7.7-3.69.25-.64.18-1.35-.17-2.11l.17-13.12h-.71c-.04-.73-.28-1.45-.73-2.16-1.44-2.27-6.68-3.37-11.23-3.43-1.96-.03-8.53.1-10.54,3.08-.9,1.33-1.27,2.5-1.11,3.5,0,0,0,0,0,.01.03.19.08.38.15.56.18.45.46.8.77,1.06.55.47,1.18.68,1.42.75.48.32.95.64,1.4.96,2.57,1.79,4.73,3.31,7.88,3.31.99,0,2.08-.15,3.31-.49,4.4-1.21,7.43-3.19,8.37-5.45l-.15,11.27-.15.1c.45.72.58,1.31.38,1.8-.55,1.42-3.69,2.23-7.01,3.09-.67.18-1.36.36-2.04.54-4.47,1.23-8.59-1.75-12.22-4.37-.6-.43-1.18-.85-1.75-1.25-.12-.08-.23-.16-.35-.24l-.55.84c.09.06.19.12.28.19Z"/>
        <path class="cls-22" d="M386.21,58.3c-.76,1.98-3.66,3.83-7.75,4.95-4.68,1.28-7.07-.38-10.36-2.67-.48-.34-.97-.68-1.49-1.03l-.17-.07s-1.2-.29-1.57-1.23c-.31-.77,0-1.85.86-3.14,1.09-1.62,4.69-2.64,9.23-2.64.15,0,.31,0,.46.01,4.99.07,9.37,1.32,10.41,2.96.61.96.74,1.92.38,2.84Z"/>
        <path class="cls-22" d="M441.74,93.34l.66-33.42h-.3s-27.24-29.08-27.24-29.08v.79s-25.16,2.95-25.16,2.95l.39,31.63v.19l14.69,17.03c-.88-.08-1.76-.13-2.62-.15-1.95-.03-8.52.11-10.54,3.09-.9,1.34-1.27,2.52-1.1,3.52l-.68,12.64.42.02c.57.4,1.17.82,1.78,1.27,3.04,2.2,6.71,4.84,10.72,4.84.77,0,1.55-.1,2.34-.31.69-.19,1.37-.37,2.04-.54,3.73-.96,6.95-1.8,7.69-3.69.25-.64.18-1.35-.17-2.11l.07-5.31,27.02-3.37Z"/>
        <path class="cls-22" d="M440.76,92.45l-26.02,3.24.09-6.8h-.72c-.02-.43-.11-.85-.28-1.28h.1s-1.88-25.79-1.88-25.79l29.33-.86-.62,31.5Z"/>
        <polygon class="cls-22" points="411.08 62.23 394.96 45.79 415.03 43.14 430.95 60.26 410.98 60.85 411.08 62.23"/>
        <polygon class="cls-22" points="440.76 59.97 432.03 60.23 432.17 60.09 415.72 42.41 415.83 33.33 440.76 59.97"/>
        <polygon class="cls-22" points="414.72 42.17 394.23 44.88 390.89 35.46 414.84 32.65 414.72 42.17"/>
        <path class="cls-22" d="M391.09,66.02l-.35-27.99,2.49,6.97-.38.05,18.18,18.55.14-.13,1.64,22.58c-1.3-1.22-3.81-2.02-6.56-2.43l-15.17-17.61Z"/>
        <path class="cls-22" d="M392.45,86.94c1.1-1.62,4.69-2.64,9.23-2.64h.47c1.25.02,2.47.12,3.6.27l.16.19.17-.14c3.21.48,5.72,1.46,6.47,2.65.61.96.74,1.92.38,2.84-.76,1.98-3.65,3.83-7.75,4.95-4.68,1.28-7.06-.38-10.36-2.68-.48-.33-.97-.67-1.48-1.02l-.17-.07s-1.21-.29-1.58-1.24c-.3-.76,0-1.85.86-3.13Z"/>
        <path class="cls-22" d="M413.89,103.75c-.56,1.42-3.69,2.23-7.01,3.09-.68.18-1.36.35-2.05.54-4.46,1.23-8.58-1.75-12.21-4.37-.61-.43-1.18-.85-1.75-1.24l.55-10.27c.55.47,1.18.68,1.42.75.49.32.95.64,1.4.96,2.57,1.79,4.74,3.3,7.89,3.3.99,0,2.08-.14,3.31-.48,4.39-1.21,7.42-3.19,8.36-5.45l-.14,11.27-.16.1c.45.72.58,1.31.39,1.8Z"/>
      </g>
    </g>
    <g>
      <g>
        <path class="cls-2" d="M288.9,430.57l-10.92-8.5-11.39,5.73,11.19,8.1,11.12-5.33ZM366.11,502.56l-.41.21-1.38,15.9-23.55,13.09-.06-.1-.19,2.37-13.55,6.4-.33,5.5-17.57,8.05-.17-.12-18.54-13.7-6.48,3.32-16.65-13.7-.39.18.06-.45-.28-.23.34-.16.73-4.78-10.95-9.05.43-25.71.42.39,4.51-1.56,3.43-60.51-.31-.22,12.82-6.45,11.56,9,.33-.16-.09,3.33,10.89-6.51.19.16,44.96,37.2.33-.12-2.14,26.22,22.03,12.21ZM363.65,518.23l1.3-15.08-22.88,11.84-1.3,15.95,22.88-12.71ZM342.14,514.17l22.47-11.63-20.59-11.41-1.88,23.04ZM339.85,533.57l5.58-68.38-16.75,6.23-4.79,46.52-.35-.04,4.32,2.92.33-.11-1.17,18.91,12.83-6.06ZM328.79,470.62l16.34-6.07-44.46-36.79-10.65,6.37-.18-.31-.21,7.82-6.48,3.85,22.41,18.97.15-3.77-.28-.2,11.37-6.9,12.81,8.72.43-.24-1.26,8.55ZM327.92,471.7l1.22-8.31-10.77,6.06-3.43,42.26-.6-.05,8.86,6.02,4.74-45.98h-.02ZM318.07,468.8l10.86-6.11-12.13-8.26-10.09,6.11,11.36,8.26ZM325.96,545.46l1.46-23.73-18.93,6.66.94,24.65,16.53-7.57ZM308.19,527.74l18.85-6.62-20.8-14.12-12.78,10.46,14.74,10.28ZM314.26,511.59l3.42-42.2-11.28-8.21-.15,3.85.06.05-.06.07-1.46,37.13h-.14l1.84,4.04,7.77,5.27ZM308.72,552.85l-.93-24.53-14.63-10.21-2.14,21.12-.57-.06-.13-.02,2.13-21.05-7.08,3.75-1.06,20.62,6.12-3.14.17.13,18.12,13.39ZM305.78,506.45l-4.46-9.76-8.21.8-17.11,9.55.06.06-2.09.76,7.46-1.16,3.82,14.4,7.42-3.92,13.11-10.73ZM304.12,501.13l1.41-35.77-22.68-19.19-2.55,38.8,12.82,11.83,8.62-.84,2.37,5.18ZM275.45,506.54l16.96-9.46-14.48-13.35-19.74,6.79,17.26,16.02ZM288.94,441.22l.25-10.01-11.12,5.33-2.85,47.37,2.86-.99,1.54,1.42,2.55-38.75-.24-.2,6.99-4.17ZM283.61,542.35l1.06-20.56-10.75-9.48-1.72,14.84.29.24-.33.15-4.2,1.92,15.67,12.89ZM284.39,520.6l-3.47-13.09-9.67,1.49,13.15,11.59ZM274.52,484.16l2.86-47.68-11.16-8.08-3.39,59.77,11.68-4.01ZM270.36,508.43l4.37-1.59-16.87-15.66-.4,23.79,10.36,8.57,2.25-14.63-.31-.26.37-.14v-.05s.23-.03.23-.03ZM273.26,511.91l.25.02-2.81-2.48-2.24,14.6,3.1,2.56,1.71-14.7ZM267.73,528.78l3.43-1.57-2.83-2.34-.6,3.91Z"/>
        <polygon class="cls-19" points="364.96 503.15 363.65 518.23 340.78 530.94 342.07 515 364.96 503.15"/>
        <polygon class="cls-14" points="364.61 502.54 342.14 514.17 344.02 491.13 364.61 502.54"/>
        <polygon class="cls-14" points="345.43 465.18 339.85 533.57 327.03 539.62 328.19 520.71 327.86 520.82 323.54 517.9 323.89 517.94 328.69 471.42 345.43 465.18"/>
        <polygon class="cls-1" points="345.13 464.55 328.79 470.62 330.05 462.07 329.62 462.31 316.81 453.59 305.44 460.49 305.72 460.69 305.56 464.46 283.16 445.49 289.64 441.64 289.84 433.81 290.03 434.13 300.68 427.76 345.13 464.55"/>
        <polygon class="cls-8" points="329.15 463.39 327.92 471.7 327.95 471.69 323.21 517.67 314.35 511.66 314.95 511.7 318.38 469.44 329.15 463.39"/>
        <polygon class="cls-9" points="328.93 462.69 318.07 468.8 306.71 460.54 316.8 454.43 328.93 462.69"/>
        <polygon class="cls-10" points="327.42 521.72 325.96 545.46 309.44 553.03 308.5 528.38 327.42 521.72"/>
        <polygon class="cls-19" points="327.03 521.12 308.19 527.74 293.45 517.46 306.23 507 327.03 521.12"/>
        <polygon class="cls-8" points="317.68 469.4 314.26 511.59 306.49 506.32 304.64 502.28 304.78 502.28 306.24 465.15 306.3 465.08 306.25 465.03 306.4 461.18 317.68 469.4"/>
        <polygon class="cls-10" points="307.79 528.32 308.72 552.85 290.6 539.46 290.43 539.33 290.45 539.17 291.02 539.23 293.16 518.11 307.79 528.32"/>
        <polygon class="cls-19" points="301.32 496.7 305.78 506.45 292.67 517.19 285.26 521.11 281.43 506.71 273.97 507.87 276.06 507.11 276 507.05 293.11 497.5 301.32 496.7"/>
        <polygon class="cls-19" points="305.53 465.35 304.12 501.13 301.75 495.95 293.13 496.79 280.3 484.96 282.86 446.16 305.53 465.35"/>
        <polygon class="cls-19" points="292.45 518.1 290.32 539.16 290.45 539.17 290.43 539.33 284.31 542.47 285.37 521.85 292.45 518.1"/>
        <polygon class="cls-19" points="292.41 497.08 275.45 506.54 258.19 490.52 277.93 483.73 292.41 497.08"/>
        <polygon class="cls-8" points="289.2 431.21 288.94 441.22 281.95 445.39 282.19 445.59 279.64 484.35 278.09 482.92 275.23 483.91 278.08 436.54 289.2 431.21"/>
        <polygon class="cls-9" points="277.98 422.07 288.9 430.57 277.78 435.9 266.59 427.8 277.98 422.07"/>
        <polygon class="cls-19" points="284.67 521.79 283.61 542.35 267.94 529.46 272.15 527.54 272.48 527.39 272.2 527.15 273.92 512.31 284.67 521.79"/>
        <polygon class="cls-8" points="280.92 507.51 284.39 520.6 271.24 509 280.92 507.51"/>
        <polygon class="cls-8" points="277.38 436.48 274.52 484.16 262.83 488.17 266.22 428.41 277.38 436.48"/>
        <polygon class="cls-10" points="274.73 506.84 270.36 508.43 270.14 508.46 270.13 508.51 269.76 508.64 270.07 508.91 267.82 523.54 257.46 514.96 257.86 491.18 274.73 506.84"/>
        <polygon class="cls-19" points="273.51 511.94 273.26 511.91 271.55 526.61 268.45 524.06 270.69 509.46 273.51 511.94"/>
      </g>
      <g>
        <polygon class="cls-22" points="366.11 502.56 344.08 490.35 346.22 464.14 345.9 464.26 300.93 427.06 300.74 426.9 289.85 433.41 289.94 430.08 289.61 430.24 278.05 421.24 265.23 427.69 265.54 427.91 262.12 488.42 257.6 489.98 257.18 489.59 256.75 515.3 267.7 524.35 266.97 529.13 266.62 529.29 266.9 529.52 266.84 529.97 267.23 529.79 283.88 543.48 290.36 540.16 308.9 553.86 309.06 553.98 326.64 545.93 326.97 540.43 340.52 534.03 340.71 531.66 340.77 531.76 364.32 518.67 365.7 502.77 366.11 502.56"/>
        <polygon class="cls-22" points="364.61 502.54 342.14 514.17 344.02 491.13 364.61 502.54"/>
        <polygon class="cls-22" points="289.64 441.64 289.84 433.81 290.03 434.13 300.68 427.76 345.13 464.55 328.79 470.62 330.05 462.07 329.62 462.31 316.81 453.59 305.44 460.49 305.72 460.69 305.56 464.46 283.16 445.49 289.64 441.64"/>
        <polygon class="cls-22" points="327.92 471.7 327.95 471.69 323.21 517.67 314.35 511.66 314.95 511.7 318.38 469.44 329.15 463.39 327.92 471.7"/>
        <polygon class="cls-22" points="308.19 527.74 293.45 517.46 306.23 507 327.03 521.12 308.19 527.74"/>
        <polygon class="cls-22" points="285.26 521.11 281.43 506.71 273.97 507.87 276.06 507.11 276 507.05 293.11 497.5 301.32 496.7 305.78 506.45 292.67 517.19 285.26 521.11"/>
        <polygon class="cls-22" points="268.45 524.06 270.69 509.46 273.51 511.94 273.26 511.91 271.55 526.61 268.45 524.06"/>
        <polygon class="cls-22" points="271.24 509 280.92 507.51 284.39 520.6 271.24 509"/>
        <polygon class="cls-22" points="305.53 465.35 304.12 501.13 301.75 495.95 293.13 496.79 280.3 484.96 282.86 446.16 305.53 465.35"/>
        <polygon class="cls-22" points="317.68 469.4 314.26 511.59 306.49 506.32 304.64 502.28 304.78 502.28 306.24 465.15 306.3 465.08 306.25 465.03 306.4 461.18 317.68 469.4"/>
        <polygon class="cls-22" points="318.07 468.8 306.71 460.54 316.8 454.43 328.93 462.69 318.07 468.8"/>
        <polygon class="cls-22" points="288.94 441.22 281.95 445.39 282.19 445.59 279.64 484.35 278.09 482.92 275.23 483.91 278.08 436.54 289.2 431.21 288.94 441.22"/>
        <line class="cls-22" x1="288.9" y1="430.57" x2="288.9" y2="430.57"/>
        <polygon class="cls-22" points="288.9 430.57 277.78 435.9 266.59 427.8 277.98 422.07 288.9 430.57"/>
        <polygon class="cls-22" points="266.22 428.41 277.38 436.48 274.52 484.16 262.83 488.17 266.22 428.41"/>
        <polygon class="cls-22" points="277.93 483.73 292.41 497.08 275.45 506.54 258.19 490.52 277.93 483.73"/>
        <polygon class="cls-22" points="257.46 514.96 257.86 491.18 274.73 506.84 270.36 508.43 270.14 508.46 270.13 508.51 269.76 508.64 270.07 508.91 267.82 523.54 257.46 514.96"/>
        <polygon class="cls-22" points="271.16 527.21 267.73 528.78 268.33 524.87 271.16 527.21"/>
        <polygon class="cls-22" points="272.15 527.54 272.48 527.39 272.2 527.15 273.92 512.31 284.67 521.79 283.61 542.35 267.94 529.46 272.15 527.54"/>
        <polygon class="cls-22" points="290.43 539.33 284.31 542.47 285.37 521.85 292.45 518.1 290.32 539.16 290.45 539.17 291.02 539.23 293.16 518.11 307.79 528.32 308.72 552.85 290.6 539.46 290.43 539.33"/>
        <polygon class="cls-22" points="309.44 553.03 308.5 528.38 327.42 521.72 325.96 545.46 309.44 553.03"/>
        <polygon class="cls-22" points="327.03 539.62 328.19 520.71 327.86 520.82 323.54 517.9 323.89 517.94 328.69 471.42 345.43 465.18 339.85 533.57 327.03 539.62"/>
        <polygon class="cls-22" points="363.65 518.23 340.78 530.94 342.07 515 364.96 503.15 363.65 518.23"/>
      </g>
    </g>
    <g>
      <g>
        <path class="cls-2" d="M322.54,13.42l6.66,11.03-.29.07-.52,42.86-67.93,19.31-.02-.42-9.92-9.01-.55-45.17-.47-.49,73.04-18.17ZM327.39,66.62l.52-41.86-68.55,16.04,2.05,44.58,65.99-18.77ZM327.62,23.79l-5.56-9.22-70.63,17.58,7.56,7.7,68.62-16.06ZM260.38,84.85l-2.03-44.24-7.37-7.5.54,43.69,8.86,8.05Z"/>
        <polygon class="cls-10" points="327.91 24.75 327.39 66.62 261.4 85.38 259.35 40.8 327.91 24.75"/>
        <polygon class="cls-19" points="322.07 14.57 327.62 23.79 259 39.85 251.44 32.15 322.07 14.57"/>
        <polygon class="cls-15" points="258.35 40.61 260.38 84.85 251.52 76.8 250.98 33.11 258.35 40.61"/>
      </g>
      <g>
        <polygon class="cls-22" points="329.2 24.45 322.54 13.42 249.5 31.59 249.97 32.08 250.52 77.26 260.44 86.27 260.46 86.69 328.39 67.38 328.91 24.52 329.2 24.45"/>
        <polygon class="cls-22" points="322.07 14.57 327.62 23.79 259 39.85 251.44 32.15 322.07 14.57"/>
        <polygon class="cls-22" points="251.52 76.8 250.98 33.11 258.35 40.61 260.38 84.85 251.52 76.8"/>
        <polygon class="cls-22" points="327.39 66.62 261.4 85.38 259.35 40.8 327.91 24.75 327.39 66.62"/>
      </g>
    </g>
    <g>
      <path class="cls-24" d="M455.91,192.05l98.92-16.4-33.31-41.02c-6.4.94-13.4,2.14-15.1,2.7,2.19,3.36,17.49,25.28,19.06,27.05h.27l.04.45c.02.18.03.3-.5.47v.08s-.09,0-.15-.03c-.96.29-3.33.75-9.05,1.88-5.59,1.1-13.04,2.54-20.48,3.99-14.89,2.89-29.78,5.78-29.78,5.78l-.28.06-23.81-27.02-16.89,3.79-.03.39.12-.09,30.96,37.92Z"/>
      <polygon class="cls-23" points="454.81 192.94 455.32 192.91 424.73 155.45 422.7 181.81 456.56 220.03 454.81 192.94"/>
      <polygon class="cls-23" points="457.09 220.64 457.1 220.64 457.15 220.63 457.09 220.64"/>
      <polygon class="cls-23" points="555.29 176.58 455.83 193.08 457.6 220.6 474.77 219.16 474.77 212.87 532.52 202.67 539.87 206.62 556.77 205.46 555.29 176.58"/>
      <path class="cls-21" d="M556.28,176.42l.41-.07-34.58-42.58-.17-.22-.28.04c-15.87,2.33-16.24,3.03-16.37,3.3l-.12.28.11.23c.21.42,5.51,8.1,9.76,14.17,5.9,8.44,8.29,11.73,9.33,13-5.62,1.15-39.68,7.76-58.44,11.4l-23.63-26.81-.19-.22-18.17,4.08-2.26,29.14,34.85,39.33.17.19,19.08-1.6v-6.37l56.59-9.99,7.29,3.92,18.16-1.25-1.54-29.98ZM424.85,153.83l16.89-3.79,23.81,27.02.28-.06s14.9-2.88,29.78-5.78c7.45-1.45,14.9-2.89,20.48-3.99,5.72-1.13,8.09-1.59,9.05-1.88.06.03.11.03.15.03v-.08c.53-.17.52-.29.5-.47l-.04-.45h-.27c-1.58-1.77-16.88-23.7-19.06-27.05,1.7-.56,8.7-1.76,15.1-2.7l33.31,41.02-98.92,16.4-30.96-37.92-.12.09.03-.39ZM422.7,181.81l2.04-26.36,30.58,37.46-.5.03,1.74,27.09-33.86-38.23ZM457.09,220.64h.06s-.06,0-.06,0h0ZM532.52,202.67l-57.75,10.2v6.29l-17.17,1.44-1.77-27.52,99.46-16.5,1.48,28.88-16.9,1.16-7.35-3.95Z"/>
    </g>
    <g>
      <g>
        <path class="cls-2" d="M115.63,451.2l35.39,38.16-1.56,35.34-51.05,8.72-.34,16.77-18.55,2.49-.17-.2-35.36-39.66v-.2l.85-51.81-.48-.55,17.85-2.56.18.19,1.84,2.05,51.4-8.75ZM148.49,523.85l1.49-33.69-50.21,10.06-1.32,32.18,50.04-8.55ZM149.53,489.23l-34.26-36.94-50.03,8.52,9.88,10.4,28.94-6.16,17.65,20.08-30.94,4.31,8.82,9.8,49.94-10.01ZM119.74,484.39l-15.59-17.73-1.85,20.15,17.44-2.42ZM101.29,486.97l1.9-20.7-27.92,5.94,14.73,16.36v-.03l11.3-1.57ZM97.43,532.98l1.33-32.27-17.7,1.29-.82,49.59,16.87-2.27.32-15.72h0l.02-.6h0ZM98.68,499.71l-36.85-40.93-15.5,2.23,34.74,39.82v.17l17.61-1.29ZM80.07,501.2l-34.25-39.24-.82,50.5,34.24,38.41.83-49.67Z"/>
        <polygon class="cls-10" points="149.98 490.16 148.49 523.85 98.46 532.4 99.78 500.22 149.98 490.16"/>
        <polygon class="cls-7" points="115.27 452.29 149.53 489.23 99.6 499.24 90.78 489.44 121.72 485.13 104.07 465.05 75.12 471.21 65.25 460.81 115.27 452.29"/>
        <polygon class="cls-20" points="104.16 466.67 119.74 484.39 102.31 486.82 104.16 466.67"/>
        <polygon class="cls-13" points="103.19 466.26 101.29 486.97 89.99 488.53 89.99 488.56 75.26 472.2 103.19 466.26"/>
        <polygon class="cls-1" points="98.76 500.71 97.43 532.98 97.43 532.99 97.41 533.6 97.42 533.6 97.1 549.31 80.23 551.59 81.05 502 98.76 500.71"/>
        <polygon class="cls-19" points="61.83 458.78 98.68 499.71 81.07 501 81.07 500.83 46.33 461.01 61.83 458.78"/>
        <polygon class="cls-8" points="45.82 461.95 80.07 501.2 79.24 550.86 45 512.45 45.82 461.95"/>
      </g>
      <g>
        <polygon class="cls-22" points="115.63 451.2 64.24 459.95 62.4 457.9 62.22 457.71 44.36 460.27 44.84 460.83 43.99 512.63 43.99 512.83 79.35 552.49 79.52 552.69 98.08 550.2 98.42 533.43 149.46 524.7 151.02 489.36 115.63 451.2"/>
        <polygon class="cls-22" points="104.16 466.67 119.74 484.39 102.31 486.82 104.16 466.67"/>
        <polygon class="cls-22" points="89.99 488.56 75.26 472.2 103.19 466.26 101.29 486.97 89.99 488.53 89.99 488.56"/>
        <polygon class="cls-22" points="99.78 500.22 98.46 532.4 148.49 523.85 149.98 490.16 99.78 500.22"/>
        <polygon class="cls-22" points="115.27 452.29 65.25 460.81 75.12 471.21 104.07 465.05 121.72 485.13 90.78 489.44 99.6 499.24 149.53 489.23 115.27 452.29"/>
        <polygon class="cls-22" points="97.43 532.98 98.76 500.71 81.05 502 80.23 551.59 97.1 549.31 97.42 533.6 97.41 533.6 97.43 532.99 97.43 532.98"/>
        <polygon class="cls-22" points="81.07 501 98.68 499.71 61.83 458.78 46.33 461.01 81.07 500.83 81.07 501"/>
        <polygon class="cls-22" points="45 512.45 79.24 550.86 80.07 501.2 45.82 461.95 45 512.45"/>
      </g>
    </g>
    <g>
      <polygon class="cls-17" points="260.33 49.69 260.56 52.59 326.75 36.82 326.67 33.23 260.33 49.69"/>
      <polygon class="cls-17" points="260.96 66.01 326.82 50.25 326.74 46.66 260.73 63.11 260.96 66.01"/>
    </g>
  </g>
</svg>